<svg xmlns="http://www.w3.org/2000/svg" xmlns:xlink="http://www.w3.org/1999/xlink" width="2000" zoomAndPan="magnify" viewBox="0 0 1500 1499.999933" height="2000" preserveAspectRatio="xMidYMid meet" version="1.0"><defs><clipPath id="5a5948a20b"><path d="M 175.679688 175.679688 L 1324.320312 175.679688 L 1324.320312 1324.320312 L 175.679688 1324.320312 Z M 175.679688 175.679688 " clip-rule="nonzero"/></clipPath><clipPath id="5de31ee0d6"><path d="M 750 175.679688 C 432.8125 175.679688 175.679688 432.8125 175.679688 750 C 175.679688 1067.1875 432.8125 1324.320312 750 1324.320312 C 1067.1875 1324.320312 1324.320312 1067.1875 1324.320312 750 C 1324.320312 432.8125 1067.1875 175.679688 750 175.679688 Z M 750 175.679688 " clip-rule="nonzero"/></clipPath><clipPath id="f2263cfb9e"><path d="M 0.679688 0.679688 L 1149.320312 0.679688 L 1149.320312 1149.320312 L 0.679688 1149.320312 Z M 0.679688 0.679688 " clip-rule="nonzero"/></clipPath><clipPath id="0f120004b2"><path d="M 575 0.679688 C 257.8125 0.679688 0.679688 257.8125 0.679688 575 C 0.679688 892.1875 257.8125 1149.320312 575 1149.320312 C 892.1875 1149.320312 1149.320312 892.1875 1149.320312 575 C 1149.320312 257.8125 892.1875 0.679688 575 0.679688 Z M 575 0.679688 " clip-rule="nonzero"/></clipPath><clipPath id="6201ea767b"><rect x="0" width="1150" y="0" height="1150"/></clipPath><clipPath id="d1f97b7b88"><path d="M 31.082031 14 L 787.351562 14 L 787.351562 812.882812 L 31.082031 812.882812 Z M 31.082031 14 " clip-rule="nonzero"/></clipPath><clipPath id="c77cab174b"><path d="M 2.535156 3 L 758.800781 3 L 758.800781 801.859375 L 2.535156 801.859375 Z M 2.535156 3 " clip-rule="nonzero"/></clipPath><clipPath id="c80cddc45e"><rect x="0" width="788" y="0" height="1158"/></clipPath><clipPath id="414916d2f3"><path d="M 1050 726.835938 L 1324.320312 726.835938 L 1324.320312 773.164062 L 1050 773.164062 Z M 1050 726.835938 " clip-rule="nonzero"/></clipPath><clipPath id="2b73f4a615"><path d="M 0 0.835938 L 274.320312 0.835938 L 274.320312 47.164062 L 0 47.164062 Z M 0 0.835938 " clip-rule="nonzero"/></clipPath><clipPath id="eae4d0559f"><rect x="0" width="275" y="0" height="48"/></clipPath><clipPath id="c185d0a9e0"><path d="M 175.679688 726.835938 L 450 726.835938 L 450 773.164062 L 175.679688 773.164062 Z M 175.679688 726.835938 " clip-rule="nonzero"/></clipPath><clipPath id="2878daa847"><path d="M 0.679688 0.835938 L 275 0.835938 L 275 47.164062 L 0.679688 47.164062 Z M 0.679688 0.835938 " clip-rule="nonzero"/></clipPath><clipPath id="c55b676a6e"><rect x="0" width="275" y="0" height="48"/></clipPath></defs><g clip-path="url(#5a5948a20b)"><g clip-path="url(#5de31ee0d6)"><g transform="matrix(1, 0, 0, 1, 175, 175)"><g clip-path="url(#6201ea767b)"><g clip-path="url(#f2263cfb9e)"><g clip-path="url(#0f120004b2)"><path fill="#ffffff" d="M 0.679688 0.679688 L 1149.320312 0.679688 L 1149.320312 1149.320312 L 0.679688 1149.320312 Z M 0.679688 0.679688 " fill-opacity="1" fill-rule="nonzero"/></g></g></g></g></g></g><g transform="matrix(1, 0, 0, 1, 355, 342)"><g clip-path="url(#c80cddc45e)"><g clip-path="url(#d1f97b7b88)"><path fill="#7f1919" d="M 453.269531 2231.558594 L 453.269531 613.113281 C 496.230469 615.941406 552.078125 625.839844 594.496094 635.027344 C 602.972656 461.132812 651.042969 268.851562 787.46875 129.609375 C 694.164062 133.140625 621.351562 173.4375 564.097656 239.175781 C 582.121094 236.347656 604.03125 235.640625 622.765625 237.40625 C 571.871094 322.238281 540.765625 444.171875 529.457031 550.214844 C 508.953125 545.269531 474.121094 541.378906 453.269531 540.320312 L 453.269531 214.445312 C 473.414062 216.207031 497.644531 222.21875 518.300781 231.40625 C 479.265625 167.082031 440.386719 94.269531 409.285156 14.386719 C 378.183594 94.269531 339.300781 167.082031 300.261719 231.40625 C 320.921875 222.21875 345.152344 216.207031 365.300781 214.441406 L 365.300781 540.320312 C 344.449219 541.378906 309.609375 545.269531 289.113281 550.214844 C 277.804688 444.179688 246.699219 322.242188 195.804688 237.40625 C 214.539062 235.636719 236.449219 236.347656 254.472656 239.175781 C 197.21875 173.4375 124.40625 133.140625 31.097656 129.605469 C 167.523438 268.871094 215.597656 461.132812 224.074219 635.027344 C 266.488281 625.839844 322.335938 615.941406 365.300781 613.113281 L 364.53125 2231.558594 Z M 453.269531 2231.558594 " fill-opacity="1" fill-rule="nonzero"/></g><g clip-path="url(#c77cab174b)"><path fill="#dd2121" d="M 424.722656 2220.535156 L 424.722656 602.089844 C 467.683594 604.917969 523.527344 614.820312 565.945312 624.007812 C 574.425781 450.113281 622.496094 257.828125 758.921875 118.585938 C 665.613281 122.117188 592.800781 162.414062 535.546875 228.15625 C 553.570312 225.328125 575.484375 224.617188 594.21875 226.386719 C 543.324219 311.214844 512.214844 433.152344 500.910156 539.195312 C 480.40625 534.246094 445.574219 530.359375 424.722656 529.300781 L 424.722656 203.421875 C 444.863281 205.1875 469.097656 211.199219 489.75 220.386719 C 450.714844 156.0625 411.835938 83.25 380.734375 3.367188 C 349.632812 83.25 310.753906 156.058594 271.714844 220.386719 C 292.375 211.195312 316.601562 205.183594 336.75 203.421875 L 336.75 529.300781 C 315.898438 530.359375 281.058594 534.246094 260.5625 539.195312 C 249.253906 433.15625 218.148438 311.222656 167.253906 226.386719 C 185.988281 224.617188 207.898438 225.328125 225.921875 228.15625 C 168.667969 162.414062 95.859375 122.121094 2.550781 118.585938 C 138.976562 257.847656 187.046875 450.113281 195.527344 624.007812 C 237.941406 614.816406 293.789062 604.917969 336.75 602.089844 L 335.984375 2220.535156 Z M 424.722656 2220.535156 " fill-opacity="1" fill-rule="nonzero"/></g></g></g><g clip-path="url(#414916d2f3)"><g transform="matrix(1, 0, 0, 1, 1050, 726)"><g clip-path="url(#eae4d0559f)"><g clip-path="url(#2b73f4a615)"><path fill="#000000" d="M 0 0.835938 L 274.367188 0.835938 L 274.367188 47.164062 L 0 47.164062 Z M 0 0.835938 " fill-opacity="1" fill-rule="nonzero"/></g></g></g></g><g clip-path="url(#c185d0a9e0)"><g transform="matrix(1, 0, 0, 1, 175, 726)"><g clip-path="url(#c55b676a6e)"><g clip-path="url(#2878daa847)"><path fill="#000000" d="M 0.679688 0.835938 L 275.042969 0.835938 L 275.042969 47.164062 L 0.679688 47.164062 Z M 0.679688 0.835938 " fill-opacity="1" fill-rule="nonzero"/></g></g></g></g></svg>